<?xml version="1.0" encoding="utf-8"?>
<!-- Generator: Adobe Illustrator 18.0.0, SVG Export Plug-In . SVG Version: 6.00 Build 0)  -->
<!DOCTYPE svg PUBLIC "-//W3C//DTD SVG 1.1//EN" "http://www.w3.org/Graphics/SVG/1.1/DTD/svg11.dtd">
<svg version="1.1" id="Capa_1" xmlns="http://www.w3.org/2000/svg" xmlns:xlink="http://www.w3.org/1999/xlink" x="0px" y="0px" width="17px" height="23px"
	 viewBox="17 336 204 301" enable-background="new 17 336 204 301" xml:space="preserve">
<path d="M67,458h32c4.4,0,8-3.6,8-8c0,0,0,0,0,0v-32c0-4.4-3.6-8-8-8c0,0,0,0,0,0H67c-4.4,0-8,3.6-8,8c0,0,0,0,0,0v32
	C59,454.4,62.6,458,67,458C67,458,67,458,67,458z M75,426h16v16H75V426z"/>
<path d="M139,458h32c4.4,0,8-3.6,8-8c0,0,0,0,0,0v-32c0-4.4-3.6-8-8-8c0,0,0,0,0,0h-32c-4.4,0-8,3.6-8,8c0,0,0,0,0,0v32
	C131,454.4,134.6,458,139,458C139,458,139,458,139,458z M147,426h16v16h-16V426z"/>
<path d="M67,526h32c4.4,0,8-3.6,8-8c0,0,0,0,0,0v-32c0-4.4-3.6-8-8-8c0,0,0,0,0,0H67c-4.4,0-8,3.6-8,8c0,0,0,0,0,0v32
	C59,522.4,62.6,526,67,526C67,526,67,526,67,526z M75,494h16v16H75V494z"/>
<path d="M139,526h32c4.4,0,8-3.6,8-8c0,0,0,0,0,0v-32c0-4.4-3.6-8-8-8c0,0,0,0,0,0h-32c-4.4,0-8,3.6-8,8c0,0,0,0,0,0v32
	C131,522.4,134.6,526,139,526C139,526,139,526,139,526z M147,494h16v16h-16V494z"/>
<path d="M213,368C213,368,213,368,213,368h-8v-24c0-4.4-3.6-8-8-8c0,0,0,0,0,0h-14h-16H71H55H41c-4.4,0-8,3.6-8,8c0,0,0,0,0,0v24h-8
	c-4.4,0-8,3.6-8,8v253c0,4.4,3.6,8,8,8c0,0,0,0,0,0h181.5c8,0,14.5-6.5,14.5-14.5l0-220.5v-26C221,371.6,217.4,368,213,368z M49,352
	h140v16H49V352z M111,621H79v-37.5c0-8,6.5-14.5,14.5-14.5H111V621z M159,621h-32v-52h17.5c8,0,14.5,6.5,14.5,14.5V621z M205,621
	h-30v-37.5c0-16.8-13.6-30.4-30.5-30.5H93.5C76.6,553,63,566.6,63,583.5V621H33V384h172V621z"/>
</svg>
