<?xml version="1.0" encoding="utf-8"?>
<!-- Generator: Adobe Illustrator 18.0.0, SVG Export Plug-In . SVG Version: 6.00 Build 0)  -->
<!DOCTYPE svg PUBLIC "-//W3C//DTD SVG 1.1//EN" "http://www.w3.org/Graphics/SVG/1.1/DTD/svg11.dtd">
<svg version="1.1" id="Capa_1" xmlns="http://www.w3.org/2000/svg" xmlns:xlink="http://www.w3.org/1999/xlink" x="0px" y="0px" width="18px" height="13px"
	 viewBox="-49 209 512 376" enable-background="new -49 209 512 376" xml:space="preserve">
<path d="M403,585H11c-33.1,0-60-26.9-60-60V269c0-33.1,26.9-60,60-60h392c33.1,0,60,26.9,60,60v256C463,558.1,436.1,585,403,585z
	 M11,249c-11,0-20,9-20,20v256c0,11,9,20,20,20h392c11,0,20-9,20-20V269c0-11-9-20-20-20H11z"/>
<polygon points="207,441.9 -29.5,266 -5.6,233.9 207,392.1 419.6,233.9 443.5,266 "/>
</svg>
