<?xml version="1.0" encoding="utf-8"?>
<!-- Generator: Adobe Illustrator 18.0.0, SVG Export Plug-In . SVG Version: 6.00 Build 0)  -->
<!DOCTYPE svg PUBLIC "-//W3C//DTD SVG 1.1//EN" "http://www.w3.org/Graphics/SVG/1.1/DTD/svg11.dtd">
<svg version="1.1" id="Capa_1" xmlns="http://www.w3.org/2000/svg" xmlns:xlink="http://www.w3.org/1999/xlink" x="0px" y="0px" width="18px" height="28px"
	 viewBox="-49 141 512 512" enable-background="new -49 141 512 512" xml:space="preserve">
<path d="M443,141H-29c-11,0-20,9-20,20v396c0,11,9,20,20,20h177l42.1,66.7c3.7,5.8,10,9.3,16.9,9.3s13.2-3.5,16.9-9.3L266,577h177
	c11,0,20-9,20-20V161C463,150,454,141,443,141z M423,537H255c-6.9,0-13.2,3.5-16.9,9.3L207,595.5l-31.1-49.2
	c-3.7-5.8-10-9.3-16.9-9.3H-9V181h432V537z M42,267c0-11,9-20,20-20h290c11,0,20,9,20,20s-9,20-20,20H62C51,287,42,278,42,267z
	 M42,451c0-11,9-20,20-20h290c11,0,20,9,20,20s-9,20-20,20H62C51,471,42,462,42,451z M42,359c0-11,9-20,20-20h290c11,0,20,9,20,20
	s-9,20-20,20H62C51,379,42,370,42,359z"/>
</svg>
