<?xml version="1.0" encoding="utf-8"?>
<!-- Generator: Adobe Illustrator 18.0.0, SVG Export Plug-In . SVG Version: 6.00 Build 0)  -->
<!DOCTYPE svg PUBLIC "-//W3C//DTD SVG 1.1//EN" "http://www.w3.org/Graphics/SVG/1.1/DTD/svg11.dtd">
<svg version="1.1" id="Capa_1" xmlns="http://www.w3.org/2000/svg" xmlns:xlink="http://www.w3.org/1999/xlink" x="0px" y="0px" width="13px" height="19px"
	 viewBox="19 121 376 552" enable-background="new 19 121 376 552" xml:space="preserve">
<path d="M335,673H79c-33.1,0-60-26.9-60-60V181c0-33.1,26.9-60,60-60h256c33.1,0,60,26.9,60,60v432C395,646.1,368.1,673,335,673z
	 M79,161c-11,0-20,9-20,20v432c0,11,9,20,20,20h256c11,0,20-9,20-20V181c0-11-9-20-20-20H79z"/>
<rect x="167" y="201.1" width="80" height="40"/>
<path d="M117,201.1c-11,0-20,9-20,20l0,0c0,11,9,20,20,20s20-9,20-20l0,0C137,210.1,128,201.1,117,201.1z"/>
<rect x="187" y="553.1" width="40" height="40"/>
</svg>
