<?xml version="1.0" encoding="utf-8"?>
<!-- Generator: Adobe Illustrator 18.0.0, SVG Export Plug-In . SVG Version: 6.00 Build 0)  -->
<!DOCTYPE svg PUBLIC "-//W3C//DTD SVG 1.1//EN" "http://www.w3.org/Graphics/SVG/1.1/DTD/svg11.dtd">
<svg version="1.1" id="Capa_1" xmlns="http://www.w3.org/2000/svg" xmlns:xlink="http://www.w3.org/1999/xlink" x="0px" y="0px" width="18px" height="18px"
	 viewBox="-49 141 512 512" enable-background="new -49 141 512 512" xml:space="preserve">
<path d="M388,472c-27.9-27.9-61.1-48.5-97.3-61c38.8-26.7,64.3-71.4,64.3-122c0-81.6-66.4-148-148-148S59,207.4,59,289
	c0,50.5,25.5,95.3,64.3,122c-36.2,12.5-69.4,33.1-97.3,61c-48.4,48.4-75,112.6-75,181h40c0-119.1,96.9-216,216-216s216,96.9,216,216
	h40C463,584.6,436.4,520.3,388,472z M99,289c0-59.6,48.4-108,108-108s108,48.4,108,108s-48.4,108-108,108S99,348.6,99,289z"/>
</svg>
